<?xml version="1.0" encoding="UTF-8" standalone="no"?>
<svg
   width="379"
   height="188"
   viewBox="0 0 379 188"
   fill="none"
   version="1.1"
   id="svg49"
   sodipodi:docname="nav_icon.svg"
   inkscape:version="1.3 (0e150ed6c4, 2023-07-21)"
   xmlns:inkscape="http://www.inkscape.org/namespaces/inkscape"
   xmlns:sodipodi="http://sodipodi.sourceforge.net/DTD/sodipodi-0.dtd"
   xmlns="http://www.w3.org/2000/svg"
   xmlns:svg="http://www.w3.org/2000/svg">
  <defs
     id="defs49" />
  <sodipodi:namedview
     id="namedview49"
     pagecolor="#ffffff"
     bordercolor="#000000"
     borderopacity="0.25"
     inkscape:showpageshadow="2"
     inkscape:pageopacity="0.0"
     inkscape:pagecheckerboard="0"
     inkscape:deskcolor="#d1d1d1"
     inkscape:zoom="3.6860158"
     inkscape:cx="189.5"
     inkscape:cy="94.003937"
     inkscape:window-width="1904"
     inkscape:window-height="995"
     inkscape:window-x="8"
     inkscape:window-y="40"
     inkscape:window-maximized="0"
     inkscape:current-layer="svg49" />
  <path
     d="M189.499 158.721C155.499 158.721 127.818 131.049 127.818 97.0167C127.818 62.9841 155.499 35.3325 189.499 35.3325C223.5 35.3325 251.18 63.0038 251.18 97.0364C251.18 131.069 223.5 158.721 189.499 158.721ZM189.499 37.302C156.582 37.302 129.787 64.087 129.787 97.0364C129.787 129.986 156.582 156.751 189.499 156.751C222.417 156.751 249.212 129.966 249.212 97.0167C249.212 64.0673 222.417 37.302 189.499 37.302Z"
     fill="#E1B168"
     id="path1" />
  <path
     d="M189.5 170.537C184.519 170.537 179.538 170.025 174.695 169.04C169.97 168.075 165.324 166.638 160.894 164.767C156.524 162.915 152.33 160.631 148.412 157.992C144.514 155.372 140.872 152.339 137.545 149.011C134.218 145.682 131.205 142.019 128.567 138.139C128.311 137.745 128.41 137.214 128.804 136.958C129.197 136.701 129.729 136.8 129.985 137.194C132.544 140.995 135.497 144.579 138.746 147.829C141.994 151.079 145.577 154.033 149.377 156.593C153.216 159.193 157.311 161.419 161.564 163.211C165.895 165.042 170.423 166.441 175.03 167.386C184.48 169.316 194.501 169.316 203.97 167.386C208.577 166.441 213.105 165.042 217.437 163.211C221.689 161.419 225.784 159.173 229.623 156.593C233.423 154.013 237.006 151.079 240.255 147.829C243.503 144.579 246.456 141.015 249.015 137.194C249.271 136.8 249.803 136.701 250.197 136.958C250.59 137.214 250.689 137.745 250.433 138.139C247.795 142.039 244.783 145.702 241.455 149.011C238.128 152.339 234.486 155.352 230.588 157.992C226.67 160.65 222.457 162.935 218.106 164.767C213.676 166.638 209.03 168.075 204.305 169.04C199.462 170.025 194.481 170.537 189.5 170.537Z"
     fill="#E1B168"
     id="path2" />
  <path
     d="M249.724 57.2528C249.449 57.2528 249.193 57.115 249.015 56.8786C246.456 53.0775 243.503 49.4931 240.255 46.2434C237.006 42.9938 233.443 40.0395 229.623 37.4792C225.784 34.8795 221.689 32.654 217.437 30.8618C213.105 29.0301 208.577 27.6318 203.97 26.6865C194.52 24.7564 184.5 24.7564 175.03 26.6865C170.423 27.6318 165.875 29.0301 161.564 30.8618C157.311 32.6737 153.196 34.8992 149.377 37.4792C145.577 40.0395 141.994 42.9938 138.746 46.2434C135.497 49.4931 132.544 53.0775 129.985 56.8786C129.729 57.2725 129.197 57.371 128.804 57.115C128.41 56.8589 128.311 56.3272 128.567 55.9333C131.205 52.0337 134.218 48.3705 137.545 45.0617C140.872 41.7333 144.534 38.72 148.412 36.0809C152.33 33.4221 156.543 31.1572 160.894 29.3059C165.324 27.4349 169.97 25.9971 174.695 25.0124C184.381 23.0232 194.619 23.0232 204.305 25.0124C209.03 25.9774 213.676 27.4152 218.106 29.3059C222.457 31.1572 226.67 33.4221 230.588 36.0809C234.486 38.72 238.148 41.7333 241.455 45.0617C244.783 48.3902 247.795 52.0534 250.433 55.9333C250.689 56.3272 250.59 56.8589 250.197 57.115C250.059 57.1937 249.901 57.2528 249.724 57.2528Z"
     fill="#E1B168"
     id="path3" />
  <path
     d="M192.473 118.977C188.044 118.977 183.732 118.031 179.657 116.18C176.605 117.598 173.376 118.307 170.049 118.307C157.41 118.307 147.113 108.007 147.113 95.3625C147.113 84.6091 154.654 75.254 165.108 72.9694C170.581 62.8857 181.015 56.6621 192.473 56.6621C208.873 56.6621 222.398 69.3653 223.501 85.6923C228.679 88.9025 231.868 94.5944 231.868 100.68C231.868 110.409 223.954 118.327 214.228 118.327C211.216 118.327 208.243 117.539 205.585 116.042C201.451 117.992 197.021 118.977 192.473 118.977ZM179.657 114.013L180.09 114.21C188.103 117.972 197.297 117.913 205.231 114.033L205.703 113.797L206.156 114.073C208.617 115.55 211.413 116.337 214.248 116.337C222.89 116.337 229.919 109.306 229.919 100.66C229.919 95.0867 226.907 89.8873 222.064 87.0906L221.591 86.8149L221.571 86.2831C220.784 70.7636 208.007 58.5922 192.473 58.5922C181.586 58.5922 171.683 64.5991 166.624 74.2693L166.407 74.6829L165.954 74.7814C156.189 76.7311 149.082 85.3772 149.082 95.3428C149.082 106.904 158.493 116.318 170.049 116.318C173.239 116.318 176.31 115.589 179.224 114.191L179.657 114.013Z"
     fill="#E1B168"
     id="path4" />
  <path
     d="M212.593 137.372H166.406V116.062L167.509 116.2C168.473 116.318 169.281 116.377 170.048 116.377C173.238 116.377 176.309 115.648 179.223 114.25L179.656 114.014L180.089 114.21C188.102 117.972 197.296 117.913 205.23 114.033L205.703 113.797L206.155 114.073C207.868 115.097 209.738 115.786 211.766 116.121L212.593 116.259V137.372ZM168.375 135.402H210.624V117.913C208.853 117.539 207.159 116.909 205.604 116.022C197.394 119.883 187.944 119.942 179.656 116.2C176.604 117.618 173.376 118.327 170.048 118.327C169.517 118.327 168.966 118.307 168.375 118.248V135.402Z"
     fill="#E1B168"
     id="path5" />
  <path
     d="M169.912 88.6267C169.361 88.6267 168.928 88.1934 168.928 87.6419C168.928 74.8206 179.362 64.3823 192.179 64.3823C192.73 64.3823 193.163 64.8156 193.163 65.3671C193.163 65.9185 192.73 66.3518 192.179 66.3518C180.445 66.3518 170.896 75.9038 170.896 87.6419C170.896 88.1934 170.463 88.6267 169.912 88.6267Z"
     fill="#E1B168"
     id="path6" />
  <path
     d="M128.961 110.921H111.754C111.203 110.921 110.77 110.488 110.77 109.936C110.77 109.385 111.203 108.952 111.754 108.952H128.961C129.512 108.952 129.945 109.385 129.945 109.936C129.945 110.488 129.512 110.921 128.961 110.921Z"
     fill="#E1B168"
     id="path18" />
  <path
     d="M128.115 96.2488H95.4531C94.9019 96.2488 94.4688 95.8155 94.4688 95.264C94.4688 94.7126 94.9019 94.2793 95.4531 94.2793H128.115C128.666 94.2793 129.099 94.7126 129.099 95.264C129.099 95.8155 128.666 96.2488 128.115 96.2488Z"
     fill="#E1B168"
     id="path19" />
  <path
     d="M130.281 81.5759H113.074C112.523 81.5759 112.09 81.1426 112.09 80.5912C112.09 80.0397 112.523 79.6064 113.074 79.6064H130.281C130.832 79.6064 131.265 80.0397 131.265 80.5912C131.265 81.1426 130.832 81.5759 130.281 81.5759Z"
     fill="#E1B168"
     id="path20" />
  <path
     d="M128.941 103.575H103.387C102.835 103.575 102.402 103.142 102.402 102.59C102.402 102.039 102.835 101.605 103.387 101.605H128.941C129.492 101.605 129.925 102.039 129.925 102.59C129.925 103.142 129.473 103.575 128.941 103.575Z"
     fill="#E1B168"
     id="path21" />
  <path
     d="M128.804 88.8044H103.25C102.699 88.8044 102.266 88.3712 102.266 87.8197C102.266 87.2682 102.699 86.835 103.25 86.835H128.804C129.356 86.835 129.789 87.2682 129.789 87.8197C129.789 88.3712 129.356 88.8044 128.804 88.8044Z"
     fill="#E1B168"
     id="path22" />
  <path
     d="M267.226 83.3289H250.02C249.468 83.3289 249.035 82.8956 249.035 82.3441C249.035 81.7927 249.468 81.3594 250.02 81.3594H267.226C267.778 81.3594 268.211 81.7927 268.211 82.3441C268.211 82.8956 267.778 83.3289 267.226 83.3289Z"
     fill="#E1B168"
     id="path23" />
  <path
     d="M283.548 98.0012H250.887C250.335 98.0012 249.902 97.5679 249.902 97.0165C249.902 96.465 250.335 96.0317 250.887 96.0317H283.548C284.1 96.0317 284.533 96.465 284.533 97.0165C284.533 97.5679 284.1 98.0012 283.548 98.0012Z"
     fill="#E1B168"
     id="path24" />
  <path
     d="M265.908 112.674H248.701C248.15 112.674 247.717 112.241 247.717 111.689C247.717 111.138 248.15 110.705 248.701 110.705H265.908C266.459 110.705 266.892 111.138 266.892 111.689C266.892 112.241 266.459 112.674 265.908 112.674Z"
     fill="#E1B168"
     id="path25" />
  <path
     d="M275.615 90.6751H250.061C249.509 90.6751 249.076 90.2418 249.076 89.6903C249.076 89.1389 249.509 88.7056 250.061 88.7056H275.615C276.166 88.7056 276.599 89.1389 276.599 89.6903C276.599 90.2418 276.166 90.6751 275.615 90.6751Z"
     fill="#E1B168"
     id="path26" />
  <path
     d="M275.752 105.446H250.197C249.646 105.446 249.213 105.012 249.213 104.461C249.213 103.909 249.646 103.476 250.197 103.476H275.752C276.303 103.476 276.736 103.909 276.736 104.461C276.736 105.012 276.283 105.446 275.752 105.446Z"
     fill="#E1B168"
     id="path27" />
</svg>
